<?xml version="1.0" standalone="no"?>
<!DOCTYPE svg PUBLIC "-//W3C//DTD SVG 20010904//EN"
 "http://www.w3.org/TR/2001/REC-SVG-20010904/DTD/svg10.dtd">
<svg version="1.0" xmlns="http://www.w3.org/2000/svg"
 width="2500.000000pt" height="2500.000000pt" viewBox="0 0 2500.000000 2500.000000"
 preserveAspectRatio="xMidYMid meet">
<metadata>
Created by potrace 1.11, written by Peter Selinger 2001-2013
</metadata>
<g transform="translate(0.000000,2500.000000) scale(0.100000,-0.100000)"
fill="#000000" stroke="none">
<path d="M0 12500 l0 -12500 7500 0 7500 0 0 520 0 520 2480 0 2480 0 0 -520
0 -520 2520 0 2520 0 0 12500 0 12500 -12500 0 -12500 0 0 -12500z m15578 513
l-3 -4038 -747 -3 -748 -2 0 4040 0 4040 750 0 750 0 -2 -4037z m4039 3956
c124 -10 337 -45 438 -72 l50 -14 -3 -144 c-2 -79 -9 -261 -16 -405 -13 -255
-13 -262 -41 -312 -15 -28 -44 -62 -64 -75 -72 -48 -203 -77 -342 -77 -361 0
-637 -100 -777 -282 -139 -181 -192 -411 -192 -829 l0 -229 695 0 695 0 0
-520 0 -520 -670 0 -670 0 0 -2260 0 -2260 -747 2 -748 3 -3 2256 -2 2256
-223 38 c-122 20 -257 48 -299 62 -149 46 -253 141 -277 253 -7 31 -11 178
-11 370 l0 320 404 0 403 0 6 303 c6 309 19 443 58 627 86 395 299 771 575
1012 175 153 424 294 664 376 316 108 721 153 1097 121z m-13808 -2343 c338
-45 599 -125 901 -276 203 -102 423 -254 534 -369 l39 -40 -98 -153 c-54 -84
-137 -213 -184 -287 -91 -142 -147 -207 -202 -238 -28 -15 -56 -18 -154 -18
-134 0 -91 -14 -415 133 -181 81 -398 154 -531 179 -114 20 -402 23 -499 4
-216 -42 -375 -135 -462 -271 -75 -117 -89 -294 -34 -417 54 -119 211 -241
429 -332 132 -56 225 -88 607 -211 589 -190 887 -330 1127 -532 233 -195 390
-464 436 -749 36 -219 30 -455 -18 -695 -137 -682 -652 -1179 -1424 -1374
-249 -63 -492 -90 -809 -90 -530 0 -989 108 -1462 344 -198 99 -361 204 -489
313 l-34 29 183 294 c101 162 194 309 207 325 46 56 117 105 182 125 77 24
224 27 297 5 27 -8 136 -64 242 -124 262 -148 428 -218 612 -258 68 -14 130
-18 315 -18 208 0 238 2 320 23 247 64 403 190 472 379 68 187 26 376 -112
500 -163 148 -312 212 -944 408 -354 109 -645 227 -840 338 -402 231 -659 585
-730 1008 -79 468 13 917 257 1264 301 428 858 721 1487 784 61 6 128 13 150
15 89 9 536 -4 644 -18z m5276 -1 c1010 -137 1728 -767 1968 -1730 66 -265 82
-409 82 -760 0 -267 -2 -319 -18 -375 -32 -117 -90 -186 -176 -210 -23 -6
-636 -10 -1760 -10 l-1724 0 7 -77 c18 -200 86 -476 159 -650 176 -418 502
-673 972 -761 124 -23 471 -23 605 1 219 38 431 119 740 281 118 62 242 123
275 135 74 28 203 38 273 22 94 -23 122 -50 374 -364 l239 -298 -20 -28 c-35
-49 -254 -254 -343 -321 -526 -395 -1161 -583 -1973 -583 -368 0 -600 30 -904
118 -1025 298 -1715 1151 -1866 2308 -173 1333 303 2424 1304 2987 327 184
680 290 1101 330 140 13 544 4 685 -15z m10358 -4029 c307 -91 527 -315 608
-621 30 -113 30 -316 0 -430 -89 -337 -359 -580 -705 -635 -96 -16 -309 -8
-396 15 -312 82 -560 338 -625 646 -22 104 -20 295 5 397 79 329 346 582 685
648 112 22 319 12 428 -20z"/>
<path d="M10460 13575 c-98 -16 -227 -55 -317 -95 -192 -87 -384 -284 -498
-509 -62 -124 -136 -356 -160 -498 l-7 -43 1163 0 1162 0 -6 98 c-12 187 -59
377 -129 517 -130 259 -352 437 -637 512 -83 22 -122 26 -291 29 -135 2 -221
-1 -280 -11z"/>
</g>
</svg>
